<svg id="Layer_1" data-name="Layer 1" xmlns="http://www.w3.org/2000/svg" viewBox="0 0 129.58 129.58"><title>travel-globe</title><path class="cls-1" d="M67,49.94a65.2,65.2,0,0,1,65,0,64.51,64.51,0,0,1,23.58,23.58,65.2,65.2,0,0,1,0,65A64.5,64.5,0,0,1,132,162.14a65.2,65.2,0,0,1-65,0,64.48,64.48,0,0,1-23.58-23.58,65.2,65.2,0,0,1,0-65A64.49,64.49,0,0,1,67,49.94ZM122.62,85.2a4.81,4.81,0,0,0-.8.8,2.17,2.17,0,0,1-1.14.8,0.62,0.62,0,0,0,.38-0.42c0.14-.28.28-0.59,0.42-0.93a2.54,2.54,0,0,1,.29-0.59,6.14,6.14,0,0,1,1.86-1.27,21.27,21.27,0,0,1,4.39-1q2.87-.67,4.3.93-0.17-.17.8-1.1a5.79,5.79,0,0,1,1.22-1,4.56,4.56,0,0,1,1.26-.38,1.88,1.88,0,0,0,1.27-.63L137,78.54a1.5,1.5,0,0,1-1.48-.59,3.55,3.55,0,0,1-.55-1.77,1.58,1.58,0,0,1-.51.67,0.58,0.58,0,0,0-.38-0.67,2.05,2.05,0,0,0-1,.08,1.32,1.32,0,0,1-.76.08,3.3,3.3,0,0,1-1.27-.63,2.77,2.77,0,0,1-.67-1.39q-0.25-1-.34-1.27a2.26,2.26,0,0,0-.8-0.89,2.25,2.25,0,0,1-.8-0.89c-0.06-.11-0.13-0.27-0.21-0.46s-0.17-.38-0.25-0.55a1.78,1.78,0,0,0-.34-0.46,0.65,0.65,0,0,0-.46-0.21,0.89,0.89,0,0,0-.59.42q-0.34.42-.63,0.84a1.11,1.11,0,0,1-.38.42,0.69,0.69,0,0,0-.51-0.13l-0.38.08a1.49,1.49,0,0,0-.38.25,2.28,2.28,0,0,1-.42.29,1.9,1.9,0,0,1-.72.25,5.77,5.77,0,0,0-.72.17q1.27-.42-0.08-0.93A2.69,2.69,0,0,0,121.1,71a0.88,0.88,0,0,0,.63-1,2,2,0,0,0-.72-1.18h0.42a1.43,1.43,0,0,0-.72-0.72,10.48,10.48,0,0,0-1.48-.72,7.06,7.06,0,0,1-1.1-.51,9.37,9.37,0,0,0-2.87-.8,5.24,5.24,0,0,0-2.78,0,1.24,1.24,0,0,0-.38.89,5.61,5.61,0,0,0,.34,1.18,4.1,4.1,0,0,1,.29,1.05,1.34,1.34,0,0,1-.46,1.1,1.65,1.65,0,0,0-.55,1,1.94,1.94,0,0,0,1.18,1.31,1.49,1.49,0,0,1,.84,1.81,3.05,3.05,0,0,1-1.35,1.35,5.7,5.7,0,0,0-1.35,1,1.76,1.76,0,0,0-.13,1.56,3.05,3.05,0,0,0,.89,1.39,0.35,0.35,0,0,1,.13.34,0.82,0.82,0,0,1-.3.38,3.75,3.75,0,0,1-.46.34l-0.55.3-0.25.17a1.38,1.38,0,0,1-1.73-.51,5.42,5.42,0,0,1-1.14-2.19q-0.59-2.11-1.35-2.53-1.94-.67-2.45.08Q103.3,75,100.27,73.9a9.94,9.94,0,0,0-4.89-.34q0.51-.08,0-1.27a1.37,1.37,0,0,0-1.6-1,4.25,4.25,0,0,0,.34-1.48c0.06-.65.08-1,0.08-1.14a4.31,4.31,0,0,1,1-1.94c0.06-.06.25-0.29,0.59-0.72a9.8,9.8,0,0,0,.8-1.14q0.29-.51,0-0.51,3,0.34,4.22-.93a6.54,6.54,0,0,0,1-1.43,10.49,10.49,0,0,1,.89-1.43,2,2,0,0,1,1.18-.46,3.82,3.82,0,0,1,1.22.46,2.94,2.94,0,0,0,1.22.42,1,1,0,0,0,1.31-.93,1.83,1.83,0,0,0-.63-1.69q1,0.09.25-1.43a3.27,3.27,0,0,0-.68-0.76,2.71,2.71,0,0,0-2.28.42q-0.68.34,0.17,0.68a2.28,2.28,0,0,0-.8.89,7.16,7.16,0,0,1-1.39,1.48q-0.68.51-1.35-.42a6.7,6.7,0,0,1-.46-1.14,1.6,1.6,0,0,0-.8-1.14,1.88,1.88,0,0,0-1.35,1.27q0.25-.67-0.93-1.27a6.11,6.11,0,0,0-2-.67q1.6-1-.67-2.28A4.21,4.21,0,0,0,93,53.57a2.3,2.3,0,0,0-1.65.34,2.26,2.26,0,0,0-.46,1,0.72,0.72,0,0,0,.42.67,5.22,5.22,0,0,0,.89.46q0.42,0.17,1,.34a6.25,6.25,0,0,1,.72.25q1.18,0.84.67,1.18c-0.11.06-.35,0.16-0.72,0.3l-1,.38a1,1,0,0,0-.51.34,1.39,1.39,0,0,0,0,1.18,1,1,0,0,1-.17,1.18,3.7,3.7,0,0,1-.76-1.48,5.43,5.43,0,0,0-.59-1.39q0.59,0.76-2.11.51l-0.84-.08a10.44,10.44,0,0,0-1.35.17,6.23,6.23,0,0,1-1.73.08,1.56,1.56,0,0,1-1.14-.67,2.17,2.17,0,0,1,0-1.69c0.06-.22.17-0.28,0.34-0.17-0.23-.17-0.54-0.44-0.93-0.8a8.41,8.41,0,0,0-.84-0.72,47.91,47.91,0,0,0-7.93,3.46,2.06,2.06,0,0,0,1-.08,9.94,9.94,0,0,0,1.1-.55l0.84-.46q2.87-1.18,3.54-.59l0.42-.42a22.64,22.64,0,0,1,1.69,2.11,4.81,4.81,0,0,0-2.53-.08q-1.69.51-1.86,1a2.07,2.07,0,0,1,.42,1.52q-0.34-.25-1-0.84a6.78,6.78,0,0,0-1.22-.93,3.39,3.39,0,0,0-1.27-.42,13.46,13.46,0,0,0-1.86.08A53.24,53.24,0,0,0,53.79,77.44a2.22,2.22,0,0,0,1,.67,0.78,0.78,0,0,1,.42.76,3.2,3.2,0,0,0,.21.93q0.13,0.25,1-.25a1.18,1.18,0,0,1,.25,1.6,31.45,31.45,0,0,1,3.71,2.28,11.68,11.68,0,0,1,1.77,1.77,1.28,1.28,0,0,1-.84,1.52A4.38,4.38,0,0,0,60.53,86c-0.45-.39-0.7-0.51-0.76-0.34a2.24,2.24,0,0,0,0,1.56q0.29,1.14.89,1.05-0.59,0-.8,1.35a19.42,19.42,0,0,0-.21,3,12.72,12.72,0,0,1-.08,2l0.17,0.08a5.25,5.25,0,0,0,.46,2.91q0.72,1.9,1.81,1.65-1.1.25,1.69,3.63a3.25,3.25,0,0,0,.67.76l1,0.63q0.76,0.46,1.27.84a3.6,3.6,0,0,1,.84.89,7.49,7.49,0,0,1,.84,1.9,4.12,4.12,0,0,0,1.18,2,2.26,2.26,0,0,0,.8,1.69,2.91,2.91,0,0,1,.89,1.94,0.42,0.42,0,0,0-.21.08,0.41,0.41,0,0,1-.21.08,2.87,2.87,0,0,0,1.31,1.18,3.17,3.17,0,0,1,1.31,1.1,5.58,5.58,0,0,1,.17.84,3,3,0,0,0,.25.93,0.49,0.49,0,0,0,.67.17q0.17-1.69-2-5.23-1.26-2.11-1.43-2.45a4.84,4.84,0,0,1-.46-1.31,6.54,6.54,0,0,0-.38-1.22,1.61,1.61,0,0,1,.51.13l0.72,0.29a4.52,4.52,0,0,1,.63.34c0.17,0.11.22,0.2,0.17,0.25a1.78,1.78,0,0,0,.17,1.48,6.73,6.73,0,0,0,1,1.56q0.59,0.68,1.43,1.6t1,1.1A8.7,8.7,0,0,1,77.07,116q0.67,1.14,0,1.14a2.66,2.66,0,0,1,1.69.84,7.7,7.7,0,0,1,1.43,1.69,6.31,6.31,0,0,1,.67,2.19,16.18,16.18,0,0,0,.42,2,2.65,2.65,0,0,0,.72,1.14,4.16,4.16,0,0,0,1.05.8l1.35,0.67c0.56,0.28.93,0.48,1.1,0.59a12.5,12.5,0,0,1,1.56.89,10.81,10.81,0,0,0,1.81,1,3.87,3.87,0,0,0,1.35.34,4.46,4.46,0,0,0,1.22-.21q0.72-.21,1.14-0.3A2.75,2.75,0,0,1,95,130.08a8.25,8.25,0,0,0,1.77,1.77q3,1.6,4.64.93c-0.11.06-.1,0.27,0,0.63a8.31,8.31,0,0,0,.67,1.31c0.31,0.51.56,0.92,0.76,1.22l0.46,0.72a8,8,0,0,0,1.52,1.27,8.08,8.08,0,0,1,1.52,1.26,1.23,1.23,0,0,0,.59-0.76,1.79,1.79,0,0,0,.59,1.69,1.64,1.64,0,0,0,1.52.84q1.18-.25,1.18-2.7-2.61,1.27-4.13-1.52a1.7,1.7,0,0,0-.21-0.46,5.17,5.17,0,0,1-.34-0.72,5.3,5.3,0,0,1-.21-0.72,1.19,1.19,0,0,1,0-.63,0.39,0.39,0,0,1,.42-0.25,0.8,0.8,0,0,0,.84-0.3,2.11,2.11,0,0,0-.17-1.05c-0.17-.51-0.28-0.87-0.34-1.1a3.66,3.66,0,0,0-.93-1.69q-0.84-1-1-1.27a1.28,1.28,0,0,1-1.35.67,1.66,1.66,0,0,1-1.35-.76,2.36,2.36,0,0,1-.13.46,2,2,0,0,0-.13.55,4.79,4.79,0,0,1-1.27-.08,10.54,10.54,0,0,0,.21-1.48,14.28,14.28,0,0,1,.3-1.9,4.68,4.68,0,0,1,.46-1q0.38-.67.63-1.22a4.15,4.15,0,0,0,.34-1.05,0.75,0.75,0,0,0-.38-0.8,2.45,2.45,0,0,0-1.48-.21,2.33,2.33,0,0,0-2.19,1.69c-0.06.17-.14,0.46-0.25,0.89a2.86,2.86,0,0,1-.42,1,2.1,2.1,0,0,1-.76.59,7.13,7.13,0,0,1-4-.25,5.34,5.34,0,0,1-1.9-2.45,7.74,7.74,0,0,1-.8-3.12,15.61,15.61,0,0,1,.21-2.24q0.21-1.39.25-2.11a5.55,5.55,0,0,0-.46-2.07,4.24,4.24,0,0,0,.76-0.8,5.2,5.2,0,0,1,.84-0.89,1.57,1.57,0,0,1,.38-0.13,0.89,0.89,0,0,1,.38,0,0.35,0.35,0,0,0,.34-0.13,1.07,1.07,0,0,0,.25-0.51,2.71,2.71,0,0,0-.34-0.25,0.79,0.79,0,0,0-.34-0.25,4.84,4.84,0,0,0,2.4-.13q1.81-.38,2.32.13,1.27,0.93,1.86-.17a7,7,0,0,0-.21-0.8,1.77,1.77,0,0,1,0-1.14q0.42,2.28,2.45.76a2.73,2.73,0,0,0,1.31.42,4.52,4.52,0,0,1,1.48.42,6.16,6.16,0,0,1,.59.46,5.23,5.23,0,0,0,.46.38,0.47,0.47,0,0,0,.42,0,2.52,2.52,0,0,0,.72-0.55,5.65,5.65,0,0,1,1,2q0.93,3.38,1.6,3.71a1.54,1.54,0,0,0,.93.17,0.76,0.76,0,0,0,.38-0.8,8.14,8.14,0,0,0,0-1.18c0-.31-0.07-0.66-0.13-1.05l-0.08-.67V111.1l-0.08-.67a1.9,1.9,0,0,1-1.56-1,1.81,1.81,0,0,1,.13-1.56,5.7,5.7,0,0,1,1.26-1.56,2.77,2.77,0,0,1,.67-0.29q0.59-.21,1.31-0.55a3.77,3.77,0,0,0,1.05-.67q1.77-1.6,1.27-3a1,1,0,0,0,.93-0.76,1.23,1.23,0,0,1-.42-0.25,6.4,6.4,0,0,0-.63-0.42,1.17,1.17,0,0,0-.38-0.17q0.76-.42.17-1.35a1.56,1.56,0,0,0,.63-0.93,1.22,1.22,0,0,1,.63-0.84,1.08,1.08,0,0,0,1.77.17,1,1,0,0,0,.08-1.35A2.84,2.84,0,0,1,118,95a2.26,2.26,0,0,0,1.56-.8q0.59,0.17.67-.17a4.58,4.58,0,0,0,.08-1,1.68,1.68,0,0,1,.25-1,2.87,2.87,0,0,1,1.27-.76q0.93-.34,1.1-0.42l1.43-.93c0.17-.22.17-0.34,0-0.34a3.05,3.05,0,0,0,2.62-.93q0.84-.93-0.51-1.69a0.55,0.55,0,0,0-.25-0.8,4.46,4.46,0,0,0-1.27-.46,3.09,3.09,0,0,1,1,0,1.31,1.31,0,0,0,.89-0.13q1.27-.84-0.59-1.35Q124.81,83.77,122.62,85.2Zm-13.75,74a52.2,52.2,0,0,0,29.61-15.94,2,2,0,0,0-1.05-.38,3,3,0,0,1-1.05-.29,13.36,13.36,0,0,0-2-.67,1.66,1.66,0,0,0-.21-1.1,2.27,2.27,0,0,0-.67-0.76l-1.05-.67-0.93-.59c-0.11-.11-0.31-0.28-0.59-0.51l-0.59-.46a6.26,6.26,0,0,0-.63-0.38,1,1,0,0,0-.72-0.17,3,3,0,0,1-.84.08l-0.25.08a2.34,2.34,0,0,0-.46.21l-0.46.25a0.87,0.87,0,0,0-.34.25,0.15,0.15,0,0,0,0,.21,10.48,10.48,0,0,0-3-1.86,2.37,2.37,0,0,1-.93-0.46,8.15,8.15,0,0,0-.89-0.59,1.24,1.24,0,0,0-.84-0.13,1.93,1.93,0,0,0-1,.59,2,2,0,0,0-.51,1.27,6.49,6.49,0,0,1-.17,1.1q-0.59-.42,0-1.48a1.38,1.38,0,0,0,.17-1.56,0.72,0.72,0,0,0-.89-0.38,2.83,2.83,0,0,0-1,.38c-0.25.17-.58,0.41-1,0.72a6.51,6.51,0,0,1-.76.55,8,8,0,0,0-.72.46,2.8,2.8,0,0,0-.72.63,4.2,4.2,0,0,0-.51,1,5.14,5.14,0,0,1-.42.93,1.47,1.47,0,0,0-1-.55,0.92,0.92,0,0,1-.8-0.46q0.17,0.85.34,3a23.57,23.57,0,0,0,.42,3.21,3.9,3.9,0,0,1-1,4q-2.28,2.11-2.45,3.37-0.34,1.86,1,2.19a3.91,3.91,0,0,1-.67,1.73,3.11,3.11,0,0,0-.59,1.81A7.18,7.18,0,0,0,108.87,159.19Z" transform="translate(-34.72 -41.25)"/></svg>